<svg height="100" viewBox="0 0 100 100" width="100" xmlns="http://www.w3.org/2000/svg"><g fill="#fff"><path d="m49.98 85.98 31.74-18.03v-35.97l-31.74 17.98z"/><path d="m18.3 67.94 31.7 18v-35.97l-31.7-17.96z"/><path d="m81.5 31.98-31.5-17.85-31.5 17.85 31.5 17.88z"/><path d="m50 48.8 29.67-16.8-.03-.02z"/><path d="m20.36 31.98-.03.02 29.67 16.8z"/><circle cx="50" cy="48.8"/></g><path d="m81.66 30.83-31.66-17.94-31.66 17.94-1 .59v37.12l31.7 18 1 .57 1-.57 31.7-18v-37.13zm-1 36.55-29.66 16.86v-33.7l29.7-16.83zm-31.66 16.86-29.7-16.87v-33.66l29.7 16.83zm-28.64-52.24 29.64-16.81 29.64 16.81-29.64 16.8-29.67-16.8z" fill="#444"/><path d="m50.13 69.39 17.05-9.67v-19.31l-17.05 9.66z" fill="#205e00"/><path d="m32.82 59.72 17.05 9.67v-19.32l-17.05-9.66z" fill="#205e00"/><path d="m67 40.15-17-9.63-17 9.63 17 9.66z" fill="#205e00"/><path d="m50 48.83 15.29-8.66-.02-.02-15.27 8.67z" fill="#96bf3d"/><path d="m34.73 40.15-.02.02 15.29 8.66v-.01z" fill="#96bf3d"/><circle cx="50" cy="48.82" fill="#96bf3d"/><path d="m67.3 39-17.3-9.79-17.3 9.79-1 .58v20.81l17.3 9.83 1 .57 1-.57 17.32-9.83v-20.81zm-1 20.22-15.3 8.7v-17.36l15.32-8.68zm-17.3 8.7-15.32-8.7v-17.34l15.32 8.68zm-14.27-27.77 15.27-8.64 15.27 8.65-15.27 8.66-15.29-8.65z" fill="#fff"/></svg>